<?xml version="1.0" standalone="yes"?><svg version="1.1" xmlns="http://www.w3.org/2000/svg" xmlns:xlink="http://www.w3.org/1999/xlink" xmlns:ev="http://www.w3.org/2001/xml-events" width="150" height="150" shape-rendering="crispEdges"><rect width="6" height="6" x="0" y="0" fill="#000"/><rect width="6" height="6" x="6" y="0" fill="#000"/><rect width="6" height="6" x="12" y="0" fill="#000"/><rect width="6" height="6" x="18" y="0" fill="#000"/><rect width="6" height="6" x="24" y="0" fill="#000"/><rect width="6" height="6" x="30" y="0" fill="#000"/><rect width="6" height="6" x="36" y="0" fill="#000"/><rect width="6" height="6" x="60" y="0" fill="#000"/><rect width="6" height="6" x="66" y="0" fill="#000"/><rect width="6" height="6" x="72" y="0" fill="#000"/><rect width="6" height="6" x="78" y="0" fill="#000"/><rect width="6" height="6" x="96" y="0" fill="#000"/><rect width="6" height="6" x="108" y="0" fill="#000"/><rect width="6" height="6" x="114" y="0" fill="#000"/><rect width="6" height="6" x="120" y="0" fill="#000"/><rect width="6" height="6" x="126" y="0" fill="#000"/><rect width="6" height="6" x="132" y="0" fill="#000"/><rect width="6" height="6" x="138" y="0" fill="#000"/><rect width="6" height="6" x="144" y="0" fill="#000"/><rect width="6" height="6" x="0" y="6" fill="#000"/><rect width="6" height="6" x="36" y="6" fill="#000"/><rect width="6" height="6" x="72" y="6" fill="#000"/><rect width="6" height="6" x="90" y="6" fill="#000"/><rect width="6" height="6" x="96" y="6" fill="#000"/><rect width="6" height="6" x="108" y="6" fill="#000"/><rect width="6" height="6" x="144" y="6" fill="#000"/><rect width="6" height="6" x="0" y="12" fill="#000"/><rect width="6" height="6" x="12" y="12" fill="#000"/><rect width="6" height="6" x="18" y="12" fill="#000"/><rect width="6" height="6" x="24" y="12" fill="#000"/><rect width="6" height="6" x="36" y="12" fill="#000"/><rect width="6" height="6" x="48" y="12" fill="#000"/><rect width="6" height="6" x="66" y="12" fill="#000"/><rect width="6" height="6" x="84" y="12" fill="#000"/><rect width="6" height="6" x="90" y="12" fill="#000"/><rect width="6" height="6" x="96" y="12" fill="#000"/><rect width="6" height="6" x="108" y="12" fill="#000"/><rect width="6" height="6" x="120" y="12" fill="#000"/><rect width="6" height="6" x="126" y="12" fill="#000"/><rect width="6" height="6" x="132" y="12" fill="#000"/><rect width="6" height="6" x="144" y="12" fill="#000"/><rect width="6" height="6" x="0" y="18" fill="#000"/><rect width="6" height="6" x="12" y="18" fill="#000"/><rect width="6" height="6" x="18" y="18" fill="#000"/><rect width="6" height="6" x="24" y="18" fill="#000"/><rect width="6" height="6" x="36" y="18" fill="#000"/><rect width="6" height="6" x="48" y="18" fill="#000"/><rect width="6" height="6" x="54" y="18" fill="#000"/><rect width="6" height="6" x="60" y="18" fill="#000"/><rect width="6" height="6" x="66" y="18" fill="#000"/><rect width="6" height="6" x="72" y="18" fill="#000"/><rect width="6" height="6" x="78" y="18" fill="#000"/><rect width="6" height="6" x="84" y="18" fill="#000"/><rect width="6" height="6" x="90" y="18" fill="#000"/><rect width="6" height="6" x="108" y="18" fill="#000"/><rect width="6" height="6" x="120" y="18" fill="#000"/><rect width="6" height="6" x="126" y="18" fill="#000"/><rect width="6" height="6" x="132" y="18" fill="#000"/><rect width="6" height="6" x="144" y="18" fill="#000"/><rect width="6" height="6" x="0" y="24" fill="#000"/><rect width="6" height="6" x="12" y="24" fill="#000"/><rect width="6" height="6" x="18" y="24" fill="#000"/><rect width="6" height="6" x="24" y="24" fill="#000"/><rect width="6" height="6" x="36" y="24" fill="#000"/><rect width="6" height="6" x="60" y="24" fill="#000"/><rect width="6" height="6" x="66" y="24" fill="#000"/><rect width="6" height="6" x="96" y="24" fill="#000"/><rect width="6" height="6" x="108" y="24" fill="#000"/><rect width="6" height="6" x="120" y="24" fill="#000"/><rect width="6" height="6" x="126" y="24" fill="#000"/><rect width="6" height="6" x="132" y="24" fill="#000"/><rect width="6" height="6" x="144" y="24" fill="#000"/><rect width="6" height="6" x="0" y="30" fill="#000"/><rect width="6" height="6" x="36" y="30" fill="#000"/><rect width="6" height="6" x="54" y="30" fill="#000"/><rect width="6" height="6" x="66" y="30" fill="#000"/><rect width="6" height="6" x="78" y="30" fill="#000"/><rect width="6" height="6" x="84" y="30" fill="#000"/><rect width="6" height="6" x="96" y="30" fill="#000"/><rect width="6" height="6" x="108" y="30" fill="#000"/><rect width="6" height="6" x="144" y="30" fill="#000"/><rect width="6" height="6" x="0" y="36" fill="#000"/><rect width="6" height="6" x="6" y="36" fill="#000"/><rect width="6" height="6" x="12" y="36" fill="#000"/><rect width="6" height="6" x="18" y="36" fill="#000"/><rect width="6" height="6" x="24" y="36" fill="#000"/><rect width="6" height="6" x="30" y="36" fill="#000"/><rect width="6" height="6" x="36" y="36" fill="#000"/><rect width="6" height="6" x="48" y="36" fill="#000"/><rect width="6" height="6" x="60" y="36" fill="#000"/><rect width="6" height="6" x="72" y="36" fill="#000"/><rect width="6" height="6" x="84" y="36" fill="#000"/><rect width="6" height="6" x="96" y="36" fill="#000"/><rect width="6" height="6" x="108" y="36" fill="#000"/><rect width="6" height="6" x="114" y="36" fill="#000"/><rect width="6" height="6" x="120" y="36" fill="#000"/><rect width="6" height="6" x="126" y="36" fill="#000"/><rect width="6" height="6" x="132" y="36" fill="#000"/><rect width="6" height="6" x="138" y="36" fill="#000"/><rect width="6" height="6" x="144" y="36" fill="#000"/><rect width="6" height="6" x="60" y="42" fill="#000"/><rect width="6" height="6" x="66" y="42" fill="#000"/><rect width="6" height="6" x="72" y="42" fill="#000"/><rect width="6" height="6" x="90" y="42" fill="#000"/><rect width="6" height="6" x="96" y="42" fill="#000"/><rect width="6" height="6" x="18" y="48" fill="#000"/><rect width="6" height="6" x="24" y="48" fill="#000"/><rect width="6" height="6" x="36" y="48" fill="#000"/><rect width="6" height="6" x="42" y="48" fill="#000"/><rect width="6" height="6" x="60" y="48" fill="#000"/><rect width="6" height="6" x="72" y="48" fill="#000"/><rect width="6" height="6" x="84" y="48" fill="#000"/><rect width="6" height="6" x="90" y="48" fill="#000"/><rect width="6" height="6" x="126" y="48" fill="#000"/><rect width="6" height="6" x="132" y="48" fill="#000"/><rect width="6" height="6" x="12" y="54" fill="#000"/><rect width="6" height="6" x="48" y="54" fill="#000"/><rect width="6" height="6" x="66" y="54" fill="#000"/><rect width="6" height="6" x="72" y="54" fill="#000"/><rect width="6" height="6" x="90" y="54" fill="#000"/><rect width="6" height="6" x="96" y="54" fill="#000"/><rect width="6" height="6" x="102" y="54" fill="#000"/><rect width="6" height="6" x="120" y="54" fill="#000"/><rect width="6" height="6" x="126" y="54" fill="#000"/><rect width="6" height="6" x="132" y="54" fill="#000"/><rect width="6" height="6" x="138" y="54" fill="#000"/><rect width="6" height="6" x="0" y="60" fill="#000"/><rect width="6" height="6" x="18" y="60" fill="#000"/><rect width="6" height="6" x="24" y="60" fill="#000"/><rect width="6" height="6" x="36" y="60" fill="#000"/><rect width="6" height="6" x="42" y="60" fill="#000"/><rect width="6" height="6" x="60" y="60" fill="#000"/><rect width="6" height="6" x="78" y="60" fill="#000"/><rect width="6" height="6" x="90" y="60" fill="#000"/><rect width="6" height="6" x="96" y="60" fill="#000"/><rect width="6" height="6" x="108" y="60" fill="#000"/><rect width="6" height="6" x="120" y="60" fill="#000"/><rect width="6" height="6" x="132" y="60" fill="#000"/><rect width="6" height="6" x="138" y="60" fill="#000"/><rect width="6" height="6" x="144" y="60" fill="#000"/><rect width="6" height="6" x="0" y="66" fill="#000"/><rect width="6" height="6" x="48" y="66" fill="#000"/><rect width="6" height="6" x="78" y="66" fill="#000"/><rect width="6" height="6" x="90" y="66" fill="#000"/><rect width="6" height="6" x="102" y="66" fill="#000"/><rect width="6" height="6" x="108" y="66" fill="#000"/><rect width="6" height="6" x="114" y="66" fill="#000"/><rect width="6" height="6" x="132" y="66" fill="#000"/><rect width="6" height="6" x="144" y="66" fill="#000"/><rect width="6" height="6" x="0" y="72" fill="#000"/><rect width="6" height="6" x="30" y="72" fill="#000"/><rect width="6" height="6" x="36" y="72" fill="#000"/><rect width="6" height="6" x="48" y="72" fill="#000"/><rect width="6" height="6" x="66" y="72" fill="#000"/><rect width="6" height="6" x="96" y="72" fill="#000"/><rect width="6" height="6" x="108" y="72" fill="#000"/><rect width="6" height="6" x="138" y="72" fill="#000"/><rect width="6" height="6" x="0" y="78" fill="#000"/><rect width="6" height="6" x="30" y="78" fill="#000"/><rect width="6" height="6" x="54" y="78" fill="#000"/><rect width="6" height="6" x="60" y="78" fill="#000"/><rect width="6" height="6" x="66" y="78" fill="#000"/><rect width="6" height="6" x="72" y="78" fill="#000"/><rect width="6" height="6" x="108" y="78" fill="#000"/><rect width="6" height="6" x="114" y="78" fill="#000"/><rect width="6" height="6" x="120" y="78" fill="#000"/><rect width="6" height="6" x="138" y="78" fill="#000"/><rect width="6" height="6" x="0" y="84" fill="#000"/><rect width="6" height="6" x="6" y="84" fill="#000"/><rect width="6" height="6" x="18" y="84" fill="#000"/><rect width="6" height="6" x="30" y="84" fill="#000"/><rect width="6" height="6" x="36" y="84" fill="#000"/><rect width="6" height="6" x="42" y="84" fill="#000"/><rect width="6" height="6" x="60" y="84" fill="#000"/><rect width="6" height="6" x="78" y="84" fill="#000"/><rect width="6" height="6" x="84" y="84" fill="#000"/><rect width="6" height="6" x="90" y="84" fill="#000"/><rect width="6" height="6" x="96" y="84" fill="#000"/><rect width="6" height="6" x="108" y="84" fill="#000"/><rect width="6" height="6" x="114" y="84" fill="#000"/><rect width="6" height="6" x="126" y="84" fill="#000"/><rect width="6" height="6" x="144" y="84" fill="#000"/><rect width="6" height="6" x="0" y="90" fill="#000"/><rect width="6" height="6" x="18" y="90" fill="#000"/><rect width="6" height="6" x="30" y="90" fill="#000"/><rect width="6" height="6" x="72" y="90" fill="#000"/><rect width="6" height="6" x="108" y="90" fill="#000"/><rect width="6" height="6" x="120" y="90" fill="#000"/><rect width="6" height="6" x="132" y="90" fill="#000"/><rect width="6" height="6" x="138" y="90" fill="#000"/><rect width="6" height="6" x="144" y="90" fill="#000"/><rect width="6" height="6" x="0" y="96" fill="#000"/><rect width="6" height="6" x="12" y="96" fill="#000"/><rect width="6" height="6" x="18" y="96" fill="#000"/><rect width="6" height="6" x="36" y="96" fill="#000"/><rect width="6" height="6" x="42" y="96" fill="#000"/><rect width="6" height="6" x="48" y="96" fill="#000"/><rect width="6" height="6" x="60" y="96" fill="#000"/><rect width="6" height="6" x="66" y="96" fill="#000"/><rect width="6" height="6" x="78" y="96" fill="#000"/><rect width="6" height="6" x="84" y="96" fill="#000"/><rect width="6" height="6" x="96" y="96" fill="#000"/><rect width="6" height="6" x="102" y="96" fill="#000"/><rect width="6" height="6" x="108" y="96" fill="#000"/><rect width="6" height="6" x="114" y="96" fill="#000"/><rect width="6" height="6" x="120" y="96" fill="#000"/><rect width="6" height="6" x="132" y="96" fill="#000"/><rect width="6" height="6" x="138" y="96" fill="#000"/><rect width="6" height="6" x="48" y="102" fill="#000"/><rect width="6" height="6" x="54" y="102" fill="#000"/><rect width="6" height="6" x="96" y="102" fill="#000"/><rect width="6" height="6" x="120" y="102" fill="#000"/><rect width="6" height="6" x="0" y="108" fill="#000"/><rect width="6" height="6" x="6" y="108" fill="#000"/><rect width="6" height="6" x="12" y="108" fill="#000"/><rect width="6" height="6" x="18" y="108" fill="#000"/><rect width="6" height="6" x="24" y="108" fill="#000"/><rect width="6" height="6" x="30" y="108" fill="#000"/><rect width="6" height="6" x="36" y="108" fill="#000"/><rect width="6" height="6" x="48" y="108" fill="#000"/><rect width="6" height="6" x="60" y="108" fill="#000"/><rect width="6" height="6" x="96" y="108" fill="#000"/><rect width="6" height="6" x="108" y="108" fill="#000"/><rect width="6" height="6" x="120" y="108" fill="#000"/><rect width="6" height="6" x="126" y="108" fill="#000"/><rect width="6" height="6" x="132" y="108" fill="#000"/><rect width="6" height="6" x="138" y="108" fill="#000"/><rect width="6" height="6" x="144" y="108" fill="#000"/><rect width="6" height="6" x="0" y="114" fill="#000"/><rect width="6" height="6" x="36" y="114" fill="#000"/><rect width="6" height="6" x="54" y="114" fill="#000"/><rect width="6" height="6" x="60" y="114" fill="#000"/><rect width="6" height="6" x="72" y="114" fill="#000"/><rect width="6" height="6" x="84" y="114" fill="#000"/><rect width="6" height="6" x="90" y="114" fill="#000"/><rect width="6" height="6" x="96" y="114" fill="#000"/><rect width="6" height="6" x="120" y="114" fill="#000"/><rect width="6" height="6" x="0" y="120" fill="#000"/><rect width="6" height="6" x="12" y="120" fill="#000"/><rect width="6" height="6" x="18" y="120" fill="#000"/><rect width="6" height="6" x="24" y="120" fill="#000"/><rect width="6" height="6" x="36" y="120" fill="#000"/><rect width="6" height="6" x="48" y="120" fill="#000"/><rect width="6" height="6" x="60" y="120" fill="#000"/><rect width="6" height="6" x="72" y="120" fill="#000"/><rect width="6" height="6" x="90" y="120" fill="#000"/><rect width="6" height="6" x="96" y="120" fill="#000"/><rect width="6" height="6" x="102" y="120" fill="#000"/><rect width="6" height="6" x="108" y="120" fill="#000"/><rect width="6" height="6" x="114" y="120" fill="#000"/><rect width="6" height="6" x="120" y="120" fill="#000"/><rect width="6" height="6" x="138" y="120" fill="#000"/><rect width="6" height="6" x="0" y="126" fill="#000"/><rect width="6" height="6" x="12" y="126" fill="#000"/><rect width="6" height="6" x="18" y="126" fill="#000"/><rect width="6" height="6" x="24" y="126" fill="#000"/><rect width="6" height="6" x="36" y="126" fill="#000"/><rect width="6" height="6" x="48" y="126" fill="#000"/><rect width="6" height="6" x="78" y="126" fill="#000"/><rect width="6" height="6" x="84" y="126" fill="#000"/><rect width="6" height="6" x="102" y="126" fill="#000"/><rect width="6" height="6" x="108" y="126" fill="#000"/><rect width="6" height="6" x="114" y="126" fill="#000"/><rect width="6" height="6" x="132" y="126" fill="#000"/><rect width="6" height="6" x="144" y="126" fill="#000"/><rect width="6" height="6" x="0" y="132" fill="#000"/><rect width="6" height="6" x="12" y="132" fill="#000"/><rect width="6" height="6" x="18" y="132" fill="#000"/><rect width="6" height="6" x="24" y="132" fill="#000"/><rect width="6" height="6" x="36" y="132" fill="#000"/><rect width="6" height="6" x="66" y="132" fill="#000"/><rect width="6" height="6" x="72" y="132" fill="#000"/><rect width="6" height="6" x="90" y="132" fill="#000"/><rect width="6" height="6" x="120" y="132" fill="#000"/><rect width="6" height="6" x="126" y="132" fill="#000"/><rect width="6" height="6" x="138" y="132" fill="#000"/><rect width="6" height="6" x="144" y="132" fill="#000"/><rect width="6" height="6" x="0" y="138" fill="#000"/><rect width="6" height="6" x="36" y="138" fill="#000"/><rect width="6" height="6" x="54" y="138" fill="#000"/><rect width="6" height="6" x="60" y="138" fill="#000"/><rect width="6" height="6" x="84" y="138" fill="#000"/><rect width="6" height="6" x="102" y="138" fill="#000"/><rect width="6" height="6" x="132" y="138" fill="#000"/><rect width="6" height="6" x="138" y="138" fill="#000"/><rect width="6" height="6" x="144" y="138" fill="#000"/><rect width="6" height="6" x="0" y="144" fill="#000"/><rect width="6" height="6" x="6" y="144" fill="#000"/><rect width="6" height="6" x="12" y="144" fill="#000"/><rect width="6" height="6" x="18" y="144" fill="#000"/><rect width="6" height="6" x="24" y="144" fill="#000"/><rect width="6" height="6" x="30" y="144" fill="#000"/><rect width="6" height="6" x="36" y="144" fill="#000"/><rect width="6" height="6" x="84" y="144" fill="#000"/><rect width="6" height="6" x="96" y="144" fill="#000"/><rect width="6" height="6" x="108" y="144" fill="#000"/><rect width="6" height="6" x="114" y="144" fill="#000"/><rect width="6" height="6" x="144" y="144" fill="#000"/></svg>